<?xml version="1.0" encoding="UTF-8" standalone="no"?>
<!DOCTYPE svg PUBLIC "-//W3C//DTD SVG 1.1//EN"
 "http://www.w3.org/Graphics/SVG/1.1/DTD/svg11.dtd">
<!-- Generated by graphviz version 2.43.0 (0)
 -->
<!-- Title: %3 Pages: 1 -->
<svg width="280pt" height="424pt"
 viewBox="0.00 0.00 279.50 424.00" xmlns="http://www.w3.org/2000/svg" xmlns:xlink="http://www.w3.org/1999/xlink">
<g id="graph0" class="graph" transform="scale(1 1) rotate(0) translate(4 420)">
<title>%3</title>
<polygon fill="white" stroke="transparent" points="-4,4 -4,-420 275.5,-420 275.5,4 -4,4"/>
<!-- Frontend -->
<g id="node1" class="node">
<title>Frontend</title>
<path fill="#e8f5e9" stroke="black" d="M32.5,-316.5C32.5,-316.5 128.5,-316.5 128.5,-316.5 134.5,-316.5 140.5,-322.5 140.5,-328.5 140.5,-328.5 140.5,-403.5 140.5,-403.5 140.5,-409.5 134.5,-415.5 128.5,-415.5 128.5,-415.5 32.5,-415.5 32.5,-415.5 26.5,-415.5 20.5,-409.5 20.5,-403.5 20.5,-403.5 20.5,-328.5 20.5,-328.5 20.5,-322.5 26.5,-316.5 32.5,-316.5"/>
<text text-anchor="middle" x="80.5" y="-400.3" font-family="Helvetica,sans-Serif" font-size="14.00">Frontend</text>
<polyline fill="none" stroke="black" points="20.5,-392.5 140.5,-392.5 "/>
<text text-anchor="start" x="28.5" y="-377.3" font-family="Helvetica,sans-Serif" font-size="14.00">index.html</text>
<text text-anchor="start" x="28.5" y="-362.3" font-family="Helvetica,sans-Serif" font-size="14.00">script.js</text>
<text text-anchor="start" x="28.5" y="-347.3" font-family="Helvetica,sans-Serif" font-size="14.00">style.css</text>
<polyline fill="none" stroke="black" points="20.5,-339.5 140.5,-339.5 "/>
<text text-anchor="middle" x="80.5" y="-324.3" font-family="Helvetica,sans-Serif" font-size="14.00">Appelle via API</text>
</g>
<!-- FieldRoutes -->
<g id="node2" class="node">
<title>FieldRoutes</title>
<path fill="#e8f5e9" stroke="black" d="M12,-173.5C12,-173.5 149,-173.5 149,-173.5 155,-173.5 161,-179.5 161,-185.5 161,-185.5 161,-252.5 161,-252.5 161,-258.5 155,-264.5 149,-264.5 149,-264.5 12,-264.5 12,-264.5 6,-264.5 0,-258.5 0,-252.5 0,-252.5 0,-185.5 0,-185.5 0,-179.5 6,-173.5 12,-173.5"/>
<text text-anchor="middle" x="80.5" y="-249.3" font-family="Helvetica,sans-Serif" font-size="14.00">FieldRoutes</text>
<polyline fill="none" stroke="black" points="0,-241.5 161,-241.5 "/>
<text text-anchor="start" x="8" y="-226.3" font-family="Helvetica,sans-Serif" font-size="14.00">get_fields(): JSON</text>
<text text-anchor="start" x="8" y="-211.3" font-family="Helvetica,sans-Serif" font-size="14.00">plant_crop(): JSON</text>
<text text-anchor="start" x="8" y="-196.3" font-family="Helvetica,sans-Serif" font-size="14.00">harvest_crop(): JSON</text>
<text text-anchor="middle" x="80.5" y="-181.3" font-family="Helvetica,sans-Serif" font-size="14.00">reset_field(): JSON</text>
</g>
<!-- Frontend&#45;&gt;FieldRoutes -->
<g id="edge1" class="edge">
<title>Frontend&#45;&gt;FieldRoutes</title>
<path fill="none" stroke="black" d="M80.5,-316.31C80.5,-303.07 80.5,-288.63 80.5,-275.06"/>
<polygon fill="black" stroke="black" points="84,-274.89 80.5,-264.89 77,-274.89 84,-274.89"/>
<text text-anchor="middle" x="107.5" y="-286.8" font-family="Times,serif" font-size="14.00">Appelle</text>
</g>
<!-- Field -->
<g id="node3" class="node">
<title>Field</title>
<path fill="#e8f5e9" stroke="black" d="M82,-0.5C82,-0.5 223,-0.5 223,-0.5 229,-0.5 235,-6.5 235,-12.5 235,-12.5 235,-109.5 235,-109.5 235,-115.5 229,-121.5 223,-121.5 223,-121.5 82,-121.5 82,-121.5 76,-121.5 70,-115.5 70,-109.5 70,-109.5 70,-12.5 70,-12.5 70,-6.5 76,-0.5 82,-0.5"/>
<text text-anchor="middle" x="152.5" y="-106.3" font-family="Helvetica,sans-Serif" font-size="14.00">Field</text>
<polyline fill="none" stroke="black" points="70,-98.5 235,-98.5 "/>
<text text-anchor="start" x="78" y="-83.3" font-family="Helvetica,sans-Serif" font-size="14.00">id: Integer</text>
<text text-anchor="start" x="78" y="-68.3" font-family="Helvetica,sans-Serif" font-size="14.00">name: String</text>
<text text-anchor="start" x="78" y="-53.3" font-family="Helvetica,sans-Serif" font-size="14.00">crop_type: String</text>
<text text-anchor="start" x="78" y="-38.3" font-family="Helvetica,sans-Serif" font-size="14.00">state: String</text>
<text text-anchor="start" x="78" y="-23.3" font-family="Helvetica,sans-Serif" font-size="14.00">last_action: DateTime</text>
<text text-anchor="middle" x="152.5" y="-8.3" font-family="Helvetica,sans-Serif" font-size="14.00">__repr__(): String</text>
</g>
<!-- FieldRoutes&#45;&gt;Field -->
<g id="edge2" class="edge">
<title>FieldRoutes&#45;&gt;Field</title>
<path fill="none" stroke="black" d="M101.13,-173.3C107.23,-160.08 114.06,-145.29 120.69,-130.91"/>
<polygon fill="black" stroke="black" points="124,-132.09 125.02,-121.55 117.65,-129.16 124,-132.09"/>
<text text-anchor="middle" x="140.5" y="-143.8" font-family="Times,serif" font-size="14.00">Utilise</text>
</g>
<!-- Database -->
<g id="node4" class="node">
<title>Database</title>
<path fill="#e8f5e9" stroke="black" d="M191.5,-188.5C191.5,-188.5 259.5,-188.5 259.5,-188.5 265.5,-188.5 271.5,-194.5 271.5,-200.5 271.5,-200.5 271.5,-237.5 271.5,-237.5 271.5,-243.5 265.5,-249.5 259.5,-249.5 259.5,-249.5 191.5,-249.5 191.5,-249.5 185.5,-249.5 179.5,-243.5 179.5,-237.5 179.5,-237.5 179.5,-200.5 179.5,-200.5 179.5,-194.5 185.5,-188.5 191.5,-188.5"/>
<text text-anchor="middle" x="225.5" y="-234.3" font-family="Helvetica,sans-Serif" font-size="14.00">Database</text>
<polyline fill="none" stroke="black" points="179.5,-226.5 271.5,-226.5 "/>
<text text-anchor="start" x="187.5" y="-211.3" font-family="Helvetica,sans-Serif" font-size="14.00">connect()</text>
<text text-anchor="middle" x="225.5" y="-196.3" font-family="Helvetica,sans-Serif" font-size="14.00">create_all()</text>
</g>
<!-- Database&#45;&gt;Field -->
<g id="edge3" class="edge">
<title>Database&#45;&gt;Field</title>
<path fill="none" stroke="black" d="M211.6,-188.29C203.96,-171.96 194.14,-150.98 184.71,-130.82"/>
<polygon fill="black" stroke="black" points="187.82,-129.21 180.41,-121.64 181.48,-132.18 187.82,-129.21"/>
<text text-anchor="middle" x="213" y="-143.8" font-family="Times,serif" font-size="14.00">Gère</text>
</g>
</g>
</svg>
